<svg width="1200" height="207" viewBox="0 0 1200 207" fill="none" xmlns="http://www.w3.org/2000/svg">
<path d="M1128.71 148.278V56.4297H1198.23V72.8083H1148.94V132.06H1200V148.278H1128.71ZM1146.21 109.58V93.8435H1192.77V109.58H1146.21Z" fill="black"/>
<path d="M1018.43 148.278V56.4297H1058.09C1070.4 56.4297 1080.15 59.32 1087.32 65.1007C1094.6 70.8814 1098.24 79.0172 1098.24 89.508C1098.24 96.3592 1096.58 102.247 1093.26 107.171C1090.05 112.096 1085.44 115.842 1079.45 118.411C1073.46 120.981 1066.34 122.265 1058.09 122.265H1029.67L1038.66 113.434V148.278H1018.43ZM1078.17 148.278L1054.56 114.879H1076.4L1100 148.278H1078.17ZM1038.66 115.842L1031.28 106.368H1056.65C1063.71 106.368 1069.01 104.923 1072.55 102.033C1076.08 99.0355 1077.84 94.8605 1077.84 89.508C1077.84 84.1556 1076.08 80.0341 1072.55 77.1438C1069.01 74.2535 1063.71 72.8083 1056.65 72.8083H1031.28L1038.66 63.495V115.842Z" fill="black"/>
<path d="M939.601 149.884C929.859 149.884 921.135 147.85 913.427 143.783C905.827 139.608 899.832 133.934 895.443 126.762C891.054 119.589 888.859 111.454 888.859 102.354C888.859 93.2551 891.054 85.1729 895.443 78.1076C899.832 70.9353 905.827 65.3152 913.427 61.2473C921.135 57.0723 929.806 54.9849 939.44 54.9849C949.182 54.9849 957.853 57.0723 965.453 61.2473C973.161 65.3152 979.209 70.9353 983.598 78.1076C987.987 85.1729 990.182 93.2551 990.182 102.354C990.182 111.454 987.987 119.589 983.598 126.762C979.209 133.934 973.161 139.608 965.453 143.783C957.853 147.85 949.235 149.884 939.601 149.884ZM939.44 132.703C945.328 132.703 950.52 131.418 955.016 128.849C959.619 126.173 963.205 122.533 965.775 117.93C968.344 113.327 969.628 108.135 969.628 102.354C969.628 96.4666 968.29 91.2747 965.614 86.7786C963.045 82.1755 959.512 78.5893 955.016 76.0201C950.52 73.4509 945.382 72.1663 939.601 72.1663C933.82 72.1663 928.628 73.4509 924.025 76.0201C919.422 78.5893 915.782 82.1755 913.106 86.7786C910.537 91.2747 909.252 96.4666 909.252 102.354C909.252 108.135 910.537 113.327 913.106 117.93C915.782 122.533 919.422 126.173 924.025 128.849C928.628 131.418 933.767 132.703 939.44 132.703Z" fill="black"/>
<path d="M824.946 148.278V72.9689H794.758V56.4297H875.366V72.9689H845.178V148.278H824.946Z" fill="black"/>
<path d="M743.335 149.884C736.162 149.884 729.097 148.921 722.139 146.994C715.288 145.067 709.775 142.552 705.6 139.447L713.147 123.711C717 126.601 721.711 128.903 727.277 130.615C732.844 132.328 738.517 133.185 744.298 133.185C751.149 133.185 755.913 132.168 758.589 130.134C761.265 128.1 762.604 125.691 762.604 122.908C762.604 120.339 761.587 118.305 759.553 116.806C757.626 115.307 755.003 114.13 751.684 113.273C748.473 112.31 744.94 111.454 741.087 110.704C737.233 109.848 733.379 108.884 729.525 107.814C725.671 106.743 722.139 105.245 718.927 103.318C715.716 101.391 713.093 98.8217 711.059 95.6102C709.132 92.3987 708.169 88.3308 708.169 83.4066C708.169 77.7329 709.775 72.7551 712.986 68.4731C716.198 64.1911 720.694 60.8726 726.474 58.5175C732.362 56.1624 739.267 54.9849 747.188 54.9849C752.862 54.9849 758.536 55.6272 764.209 56.9118C769.99 58.0893 775.021 60.0697 779.303 62.853L772.399 78.5893C768.331 75.9131 764.049 74.0932 759.553 73.1298C755.164 72.0593 750.828 71.524 746.546 71.524C740.123 71.524 735.466 72.541 732.576 74.575C729.793 76.6089 728.401 79.1781 728.401 82.2825C728.401 84.8517 729.365 86.8857 731.291 88.3844C733.325 89.8831 735.948 91.1141 739.16 92.0776C742.371 92.934 745.904 93.7368 749.758 94.4862C753.718 95.2355 757.572 96.199 761.319 97.3765C765.173 98.447 768.705 99.9457 771.917 101.873C775.235 103.692 777.858 106.155 779.785 109.259C781.712 112.363 782.675 116.324 782.675 121.142C782.675 126.922 781.07 131.954 777.858 136.236C774.754 140.518 770.311 143.89 764.53 146.352C758.75 148.707 751.684 149.884 743.335 149.884Z" fill="black"/>
<path d="M625.608 127.082L624.484 103.478L670.408 56.4297H692.888L652.745 99.1425L641.344 110.864L625.608 127.082ZM607.463 148.278V56.4297H627.695V148.278H607.463ZM671.371 148.278L637.49 107.974L650.657 93.3618L695.297 148.278H671.371Z" fill="black"/>
<path d="M528.624 149.884C518.883 149.884 510.158 147.85 502.451 143.783C494.85 139.608 488.855 133.934 484.466 126.762C480.077 119.589 477.883 111.454 477.883 102.354C477.883 93.2551 480.077 85.1729 484.466 78.1076C488.855 70.9353 494.85 65.3152 502.451 61.2473C510.158 57.0723 518.829 54.9849 528.464 54.9849C538.205 54.9849 546.876 57.0723 554.477 61.2473C562.184 65.3152 568.233 70.9353 572.622 78.1076C577.011 85.1729 579.205 93.2551 579.205 102.354C579.205 111.454 577.011 119.589 572.622 126.762C568.233 133.934 562.184 139.608 554.477 143.783C546.876 147.85 538.259 149.884 528.624 149.884ZM528.464 132.703C534.351 132.703 539.543 131.418 544.039 128.849C548.643 126.173 552.229 122.533 554.798 117.93C557.367 113.327 558.652 108.135 558.652 102.354C558.652 96.4666 557.314 91.2747 554.637 86.7786C552.068 82.1755 548.536 78.5893 544.039 76.0201C539.543 73.4509 534.405 72.1663 528.624 72.1663C522.844 72.1663 517.652 73.4509 513.049 76.0201C508.445 78.5893 504.806 82.1755 502.13 86.7786C499.56 91.2747 498.276 96.4666 498.276 102.354C498.276 108.135 499.56 113.327 502.13 117.93C504.806 122.533 508.445 126.173 513.049 128.849C517.652 131.418 522.79 132.703 528.464 132.703Z" fill="black"/>
<path d="M406.595 149.884C396.854 149.884 388.129 147.85 380.421 143.783C372.821 139.608 366.826 133.934 362.437 126.762C358.048 119.589 355.854 111.454 355.854 102.354C355.854 93.2551 358.048 85.1729 362.437 78.1076C366.826 70.9353 372.821 65.3152 380.421 61.2473C388.129 57.0723 396.8 54.9849 406.434 54.9849C416.176 54.9849 424.847 57.0723 432.447 61.2473C440.155 65.3152 446.203 70.9353 450.592 78.1076C454.981 85.1729 457.176 93.2551 457.176 102.354C457.176 111.454 454.981 119.589 450.592 126.762C446.203 133.934 440.155 139.608 432.447 143.783C424.847 147.85 416.229 149.884 406.595 149.884ZM406.434 132.703C412.322 132.703 417.514 131.418 422.01 128.849C426.613 126.173 430.199 122.533 432.769 117.93C435.338 113.327 436.622 108.135 436.622 102.354C436.622 96.4666 435.284 91.2747 432.608 86.7786C430.039 82.1755 426.506 78.5893 422.01 76.0201C417.514 73.4509 412.376 72.1663 406.595 72.1663C400.814 72.1663 395.622 73.4509 391.019 76.0201C386.416 78.5893 382.776 82.1755 380.1 86.7786C377.531 91.2747 376.246 96.4666 376.246 102.354C376.246 108.135 377.531 113.327 380.1 117.93C382.776 122.533 386.416 126.173 391.019 128.849C395.622 131.418 400.761 132.703 406.434 132.703Z" fill="black"/>
<path d="M250.941 148.278V56.4297H295.581C307.249 56.4297 316.028 58.6242 321.915 63.0132C327.91 67.4023 330.907 73.2365 330.907 80.5159C330.907 87.6882 328.445 93.3618 323.521 97.5368C318.704 101.712 312.174 103.799 303.931 103.799L306.5 98.6608C315.385 98.6608 322.451 100.748 327.696 104.923C332.941 109.098 335.564 115.146 335.564 123.068C335.564 130.99 332.406 137.199 326.09 141.695C319.774 146.084 310.514 148.278 298.311 148.278H250.941ZM271.174 133.345H297.026C302.914 133.345 307.41 132.381 310.514 130.455C313.619 128.421 315.171 125.37 315.171 121.302C315.171 117.127 313.619 114.076 310.514 112.149C307.41 110.222 302.914 109.259 297.026 109.259H268.444V94.6464H293.333C298.9 94.6464 303.128 93.683 306.018 91.7561C309.016 89.7221 310.514 86.7783 310.514 82.9245C310.514 79.1777 309.016 76.3409 306.018 74.414C303.128 72.3801 298.9 71.3631 293.333 71.3631H271.174V133.345Z" fill="black"/>
<rect width="19.2543" height="151.38" transform="matrix(-1 0 0 1 175.174 27.25)" fill="black"/>
<rect width="19.5863" height="151.38" transform="matrix(-1 0 0 1 138.992 27.25)" fill="black"/>
<rect width="19.1831" height="153.006" transform="matrix(-0.928435 -0.371495 -0.404544 0.914518 110.852 38.8677)" fill="black"/>
</svg>
