<svg width="1210" height="200" viewBox="0 0 1210 200" fill="none" xmlns="http://www.w3.org/2000/svg">
<path d="M1138.71 146.293V54.4448H1208.23V70.8234H1158.94V130.075H1210V146.293H1138.71ZM1156.21 107.595V91.8587H1202.77V107.595H1156.21Z" fill="#151515"/>
<path d="M1028.43 146.293V54.4448H1068.09C1080.4 54.4448 1090.15 57.3352 1097.32 63.1159C1104.6 68.8965 1108.24 77.0323 1108.24 87.5232C1108.24 94.3744 1106.58 100.262 1103.26 105.186C1100.05 110.111 1095.44 113.857 1089.45 116.427C1083.46 118.996 1076.34 120.28 1068.09 120.28H1039.67L1048.66 111.449V146.293H1028.43ZM1088.17 146.293L1064.56 112.894H1086.4L1110 146.293H1088.17ZM1048.66 113.857L1041.28 104.383H1066.65C1073.71 104.383 1079.01 102.938 1082.55 100.048C1086.08 97.0506 1087.84 92.8757 1087.84 87.5232C1087.84 82.1707 1086.08 78.0493 1082.55 75.1589C1079.01 72.2686 1073.71 70.8234 1066.65 70.8234H1041.28L1048.66 61.5101V113.857Z" fill="#151515"/>
<path d="M949.601 147.9C939.859 147.9 931.135 145.866 923.427 141.798C915.827 137.623 909.832 131.949 905.443 124.777C901.054 117.604 898.859 109.469 898.859 100.369C898.859 91.2703 901.054 83.188 905.443 76.1227C909.832 68.9504 915.827 63.3303 923.427 59.2624C931.135 55.0875 939.806 53 949.44 53C959.182 53 967.853 55.0875 975.453 59.2624C983.161 63.3303 989.209 68.9504 993.598 76.1227C997.987 83.188 1000.18 91.2703 1000.18 100.369C1000.18 109.469 997.987 117.604 993.598 124.777C989.209 131.949 983.161 137.623 975.453 141.798C967.853 145.866 959.235 147.9 949.601 147.9ZM949.44 130.718C955.328 130.718 960.52 129.433 965.016 126.864C969.619 124.188 973.205 120.548 975.775 115.945C978.344 111.342 979.628 106.15 979.628 100.369C979.628 94.4817 978.29 89.2898 975.614 84.7938C973.045 80.1906 969.512 76.6045 965.016 74.0353C960.52 71.4661 955.382 70.1815 949.601 70.1815C943.82 70.1815 938.628 71.4661 934.025 74.0353C929.422 76.6045 925.782 80.1906 923.106 84.7938C920.537 89.2898 919.252 94.4817 919.252 100.369C919.252 106.15 920.537 111.342 923.106 115.945C925.782 120.548 929.422 124.188 934.025 126.864C938.628 129.433 943.767 130.718 949.44 130.718Z" fill="#151515"/>
<path d="M834.946 146.293V70.984H804.758V54.4448H885.366V70.984H855.178V146.293H834.946Z" fill="#151515"/>
<path d="M753.335 147.9C746.162 147.9 739.097 146.936 732.139 145.009C725.288 143.082 719.775 140.567 715.6 137.462L723.147 121.726C727 124.616 731.711 126.918 737.277 128.631C742.844 130.343 748.517 131.2 754.298 131.2C761.149 131.2 765.913 130.183 768.589 128.149C771.265 126.115 772.604 123.706 772.604 120.923C772.604 118.354 771.587 116.32 769.553 114.821C767.626 113.322 765.003 112.145 761.684 111.289C758.473 110.325 754.94 109.469 751.087 108.719C747.233 107.863 743.379 106.9 739.525 105.829C735.671 104.759 732.139 103.26 728.927 101.333C725.716 99.406 723.093 96.8368 721.059 93.6254C719.132 90.4139 718.169 86.346 718.169 81.4217C718.169 75.7481 719.775 70.7702 722.986 66.4883C726.198 62.2063 730.694 58.8877 736.474 56.5326C742.362 54.1775 749.267 53 757.188 53C762.862 53 768.536 53.6423 774.209 54.9269C779.99 56.1044 785.021 58.0849 789.303 60.8682L782.399 76.6045C778.331 73.9282 774.049 72.1084 769.553 71.1449C765.164 70.0744 760.828 69.5392 756.546 69.5392C750.123 69.5392 745.466 70.5562 742.576 72.5901C739.793 74.624 738.401 77.1932 738.401 80.2977C738.401 82.8669 739.365 84.9008 741.291 86.3995C743.325 87.8982 745.948 89.1293 749.16 90.0927C752.371 90.9491 755.904 91.752 759.758 92.5013C763.718 93.2507 767.572 94.2141 771.319 95.3917C775.173 96.4622 778.705 97.9609 781.917 99.8878C785.235 101.708 787.858 104.17 789.785 107.274C791.712 110.379 792.675 114.339 792.675 119.157C792.675 124.937 791.07 129.969 787.858 134.251C784.754 138.533 780.311 141.905 774.53 144.367C768.75 146.722 761.684 147.9 753.335 147.9Z" fill="#151515"/>
<path d="M635.608 125.098L634.484 101.493L680.408 54.4448H702.888L662.745 97.1576L651.344 108.88L635.608 125.098ZM617.463 146.293V54.4448H637.695V146.293H617.463ZM681.371 146.293L647.49 105.989L660.657 91.377L705.297 146.293H681.371Z" fill="#151515"/>
<path d="M538.624 147.9C528.883 147.9 520.158 145.866 512.451 141.798C504.85 137.623 498.855 131.949 494.466 124.777C490.077 117.604 487.883 109.469 487.883 100.369C487.883 91.2703 490.077 83.188 494.466 76.1227C498.855 68.9504 504.85 63.3303 512.451 59.2624C520.158 55.0875 528.829 53 538.464 53C548.205 53 556.876 55.0875 564.477 59.2624C572.184 63.3303 578.233 68.9504 582.622 76.1227C587.011 83.188 589.205 91.2703 589.205 100.369C589.205 109.469 587.011 117.604 582.622 124.777C578.233 131.949 572.184 137.623 564.477 141.798C556.876 145.866 548.259 147.9 538.624 147.9ZM538.464 130.718C544.351 130.718 549.543 129.433 554.039 126.864C558.643 124.188 562.229 120.548 564.798 115.945C567.367 111.342 568.652 106.15 568.652 100.369C568.652 94.4817 567.314 89.2898 564.637 84.7938C562.068 80.1906 558.536 76.6045 554.039 74.0353C549.543 71.4661 544.405 70.1815 538.624 70.1815C532.844 70.1815 527.652 71.4661 523.049 74.0353C518.445 76.6045 514.806 80.1906 512.13 84.7938C509.56 89.2898 508.276 94.4817 508.276 100.369C508.276 106.15 509.56 111.342 512.13 115.945C514.806 120.548 518.445 124.188 523.049 126.864C527.652 129.433 532.79 130.718 538.464 130.718Z" fill="#151515"/>
<path d="M416.595 147.9C406.854 147.9 398.129 145.866 390.421 141.798C382.821 137.623 376.826 131.949 372.437 124.777C368.048 117.604 365.854 109.469 365.854 100.369C365.854 91.2703 368.048 83.188 372.437 76.1227C376.826 68.9504 382.821 63.3303 390.421 59.2624C398.129 55.0875 406.8 53 416.434 53C426.176 53 434.847 55.0875 442.447 59.2624C450.155 63.3303 456.203 68.9504 460.592 76.1227C464.981 83.188 467.176 91.2703 467.176 100.369C467.176 109.469 464.981 117.604 460.592 124.777C456.203 131.949 450.155 137.623 442.447 141.798C434.847 145.866 426.229 147.9 416.595 147.9ZM416.434 130.718C422.322 130.718 427.514 129.433 432.01 126.864C436.613 124.188 440.199 120.548 442.769 115.945C445.338 111.342 446.622 106.15 446.622 100.369C446.622 94.4817 445.284 89.2898 442.608 84.7938C440.039 80.1906 436.506 76.6045 432.01 74.0353C427.514 71.4661 422.376 70.1815 416.595 70.1815C410.814 70.1815 405.622 71.4661 401.019 74.0353C396.416 76.6045 392.776 80.1906 390.1 84.7938C387.531 89.2898 386.246 94.4817 386.246 100.369C386.246 106.15 387.531 111.342 390.1 115.945C392.776 120.548 396.416 124.188 401.019 126.864C405.622 129.433 410.761 130.718 416.434 130.718Z" fill="#151515"/>
<path d="M260.941 146.293V54.4448H305.581C317.249 54.4448 326.028 56.6393 331.915 61.0284C337.91 65.4174 340.907 71.2516 340.907 78.531C340.907 85.7033 338.445 91.377 333.521 95.5519C328.704 99.7268 322.174 101.814 313.931 101.814L316.5 96.6759C325.385 96.6759 332.451 98.7634 337.696 102.938C342.941 107.113 345.564 113.162 345.564 121.083C345.564 129.005 342.406 135.214 336.09 139.71C329.774 144.099 320.514 146.293 308.311 146.293H260.941ZM281.174 131.36H307.026C312.914 131.36 317.41 130.397 320.514 128.47C323.619 126.436 325.171 123.385 325.171 119.317C325.171 115.142 323.619 112.091 320.514 110.164C317.41 108.237 312.914 107.274 307.026 107.274H278.444V92.6616H303.333C308.9 92.6616 313.128 91.6981 316.018 89.7712C319.016 87.7373 320.514 84.7934 320.514 80.9396C320.514 77.1929 319.016 74.3561 316.018 72.4292C313.128 70.3952 308.9 69.3783 303.333 69.3783H281.174V131.36Z" fill="#151515"/>
<rect width="200" height="200" rx="40" fill="#151515"/>
<rect width="18.6651" height="146.747" rx="9.33255" transform="matrix(-1 0 0 1 169.811 26.415)" fill="white"/>
<rect width="18.9869" height="146.747" rx="9.49346" transform="matrix(-1 0 0 1 134.736 26.415)" fill="white"/>
<rect width="18.596" height="148.323" rx="9.29802" transform="matrix(-0.928435 -0.371495 -0.404544 0.914518 107.457 37.6787)" fill="white"/>
</svg>
